<svg xmlns="http://www.w3.org/2000/svg" width="94" height="34" viewBox="0 0 94 34">
  <g id="Group_790" data-name="Group 790" transform="translate(-878 -77)">
    <g id="Group_662" data-name="Group 662" transform="translate(-40)">
      <circle id="Ellipse_131" data-name="Ellipse 131" cx="14" cy="14" r="14" transform="translate(921 80)" fill="#fff" stroke="#fff" stroke-width="6"/>
      <g id="_110-united_kingdom" data-name="110-united kingdom" transform="translate(921 80)">
        <ellipse id="Ellipse_122" data-name="Ellipse 122" cx="13.85" cy="13.85" rx="13.85" ry="13.85" transform="translate(0.15 0.15)" fill="#f0f0f0"/>
        <g id="Group_639" data-name="Group 639" transform="translate(0.481 0.481)">
          <path id="Path_1369" data-name="Path 1369" d="M11.226,100.142A13.924,13.924,0,0,0,8.819,105h7.27Z" transform="translate(-8.819 -95.145)" fill="#0052b4"/>
          <path id="Path_1370" data-name="Path 1370" d="M377.275,105.006a13.924,13.924,0,0,0-2.408-4.863l-4.863,4.863Z" transform="translate(-350.238 -95.146)" fill="#0052b4"/>
          <path id="Path_1371" data-name="Path 1371" d="M8.819,322.784a13.925,13.925,0,0,0,2.407,4.863l4.863-4.863Z" transform="translate(-8.819 -305.606)" fill="#0052b4"/>
          <path id="Path_1372" data-name="Path 1372" d="M327.645,11.227a13.925,13.925,0,0,0-4.863-2.408v7.27Z" transform="translate(-305.604 -8.819)" fill="#0052b4"/>
          <path id="Path_1373" data-name="Path 1373" d="M100.142,374.868A13.925,13.925,0,0,0,105,377.275v-7.27Z" transform="translate(-95.145 -350.238)" fill="#0052b4"/>
          <path id="Path_1374" data-name="Path 1374" d="M105,8.819a13.926,13.926,0,0,0-4.863,2.407L105,16.089Z" transform="translate(-95.145 -8.819)" fill="#0052b4"/>
          <path id="Path_1375" data-name="Path 1375" d="M322.783,377.275a13.925,13.925,0,0,0,4.863-2.408l-4.863-4.863Z" transform="translate(-305.605 -350.238)" fill="#0052b4"/>
          <path id="Path_1376" data-name="Path 1376" d="M370.005,322.784l4.863,4.863a13.924,13.924,0,0,0,2.408-4.863Z" transform="translate(-350.238 -305.606)" fill="#0052b4"/>
        </g>
        <g id="Group_640" data-name="Group 640">
          <path id="Path_1377" data-name="Path 1377" d="M27.881,12.174H15.826V.118a14.129,14.129,0,0,0-3.652,0V12.174H.119a14.128,14.128,0,0,0,0,3.652H12.174V27.881a14.129,14.129,0,0,0,3.652,0V15.826H27.881a14.128,14.128,0,0,0,0-3.652Z" transform="translate(0 0)" fill="#d80027"/>
          <path id="Path_1378" data-name="Path 1378" d="M322.783,322.783l6.236,6.236q.43-.43.821-.9l-5.339-5.339h-1.719Z" transform="translate(-305.112 -305.112)" fill="#d80027"/>
          <path id="Path_1379" data-name="Path 1379" d="M81.216,322.784h0L74.98,329.02q.43.43.9.821l5.339-5.339Z" transform="translate(-70.887 -305.113)" fill="#d80027"/>
          <path id="Path_1380" data-name="Path 1380" d="M66.991,81.216h0L60.754,74.98q-.43.43-.821.9l5.339,5.339h1.719Z" transform="translate(-56.661 -70.887)" fill="#d80027"/>
          <path id="Path_1381" data-name="Path 1381" d="M322.783,66.992l6.236-6.236q-.43-.43-.9-.821l-5.339,5.339Z" transform="translate(-305.112 -56.662)" fill="#d80027"/>
        </g>
      </g>
    </g>
    <g id="Group_663" data-name="Group 663" transform="translate(-58)">
      <circle id="Ellipse_132" data-name="Ellipse 132" cx="14" cy="14" r="14" transform="translate(959 80)" fill="#fff" stroke="#fff" stroke-width="6"/>
      <g id="_253-nigeria" data-name="253-nigeria" transform="translate(959 80)">
        <circle id="Ellipse_121" data-name="Ellipse 121" cx="14" cy="14" r="14" transform="translate(0 0)" fill="#f0f0f0"/>
        <g id="Group_635" data-name="Group 635" transform="translate(0.054 0.921)">
          <path id="Path_1367" data-name="Path 1367" d="M0,29A13.951,13.951,0,0,0,9.1,42.082V15.924A13.951,13.951,0,0,0,0,29Z" transform="translate(0 -15.924)" fill="#6da544"/>
          <path id="Path_1368" data-name="Path 1368" d="M354.138,29a13.951,13.951,0,0,0-9.1-13.079V42.082A13.951,13.951,0,0,0,354.138,29Z" transform="translate(-326.246 -15.924)" fill="#6da544"/>
        </g>
      </g>
    </g>
    <g id="Group_664" data-name="Group 664" transform="translate(-52)">
      <circle id="Ellipse_133" data-name="Ellipse 133" cx="14" cy="14" r="14" transform="translate(973 80)" fill="#fff" stroke="#fff" stroke-width="6"/>
      <g id="_197-france" data-name="197-france" transform="translate(973.333 79.811)">
        <ellipse id="Ellipse_129" data-name="Ellipse 129" cx="13.993" cy="14" rx="13.993" ry="14" transform="translate(-0.333 0.189)" fill="#f0f0f0"/>
        <path id="Path_1391" data-name="Path 1391" d="M354.4,29.372a14.346,14.346,0,0,0-9.353-13.449v26.9A14.346,14.346,0,0,0,354.4,29.372Z" transform="translate(-326.729 -15.182)" fill="#d80027"/>
        <path id="Path_1392" data-name="Path 1392" d="M0,29.372A14.346,14.346,0,0,0,9.353,42.82v-26.9A14.346,14.346,0,0,0,0,29.372Z" transform="translate(0 -15.182)" fill="#0052b4"/>
      </g>
    </g>
    <g id="Group_665" data-name="Group 665" transform="translate(-46)">
      <circle id="Ellipse_134" data-name="Ellipse 134" cx="14" cy="14" r="14" transform="translate(987 80)" fill="#fff" stroke="#fff" stroke-width="6"/>
      <g id="_193-ireland" data-name="193-ireland" transform="translate(986.869 79.811)">
        <ellipse id="Ellipse_130" data-name="Ellipse 130" cx="13.993" cy="14" rx="13.993" ry="14" transform="translate(0.146 0.189)" fill="#f0f0f0"/>
        <path id="Path_1393" data-name="Path 1393" d="M354.4,29.373a14.346,14.346,0,0,0-9.353-13.449v26.9A14.346,14.346,0,0,0,354.4,29.373Z" transform="translate(-326.598 -15.183)" fill="#ff9811"/>
        <path id="Path_1394" data-name="Path 1394" d="M0,29.373A14.346,14.346,0,0,0,9.353,42.821v-26.9A14.346,14.346,0,0,0,0,29.373Z" transform="translate(0.131 -15.183)" fill="#6da544"/>
      </g>
    </g>
  </g>
</svg>
