<svg xmlns="http://www.w3.org/2000/svg" width="60.058" height="72.511" viewBox="0 0 60.058 72.511">
  <g id="Waves" transform="matrix(0.951, -0.309, 0.309, 0.951, -76.343, -8.364)">
    <path id="Path_1981" data-name="Path 1981" d="M101.65,76.247c.683-17.812-13.317-29.223-22.75-30.614v8.349c5.919.742,17.2,6.785,17.2,25.048,0,16.142,13.5,23.193,20.531,23.378V95.172S100.967,94.058,101.65,76.247Z" transform="translate(-7.819)" fill="#fc6190" stroke="#000" stroke-width="2"/>
    <path id="Path_1982" data-name="Path 1982" d="M88.693,83.065c.683-17.812-13.317-29.222-22.751-30.614V60.8c5.919.742,17.2,6.785,17.2,25.048,0,16.142,13.5,23.192,20.531,23.378V101.99S88.01,100.877,88.693,83.065Z" transform="translate(0 -4.115)" fill="#ffc400" stroke="#000" stroke-width="2"/>
  </g>
</svg>
